<ttFont>
<head>
    <!-- Most of this table will be recalculated by the compiler -->
    <tableVersion value="1.0"/>
    <fontRevision value="1.0"/>
    <checkSumAdjustment value="0x12345678"/>
    <magicNumber value="0x5f0f3cf5"/>
    <flags value="00000000 00000011"/>
    <unitsPerEm value="1000"/>
    <created value="Fri Feb 17 17:17:17 2017"/>
    <modified value="Sun Feb 18 18:18:18 2018"/>
    <xMin value="-55"/>
    <yMin value="-280"/>
    <xMax value="454"/>
    <yMax value="750"/>
    <macStyle value="00000000 00000000"/>
    <lowestRecPPEM value="10"/>
    <fontDirectionHint value="2"/>
    <indexToLocFormat value="0"/>
    <glyphDataFormat value="0"/>
  </head>
              <CharString index="0">
                66 -102 callsubr
              </CharString>
              <CharString index="1">
                -55 -80 rmoveto
                509 hlineto
                149 -99 callsubr
                -149 vhcurveto
                121</CharString>
              <CharString index="2">
                rmoveto
                -34 -27 -27 -33 -33 27 -27 34 33 27 27 33 33 -27 27 -33 hvcurveto
              </CharString>
              <CharString index="3">
                rmoveto
                509 hlineto
                150 -99 callsubr
                -150 vhcurveto
              </CharString>
              <CharString index="4">
                rmoveto
                -100 callsubr
              </CharString>
              <CharString index="5">
                hmoveto
                -100 callsubr
              </CharString>
              <CharString index="6">
                rmoveto
                -510 210 510 vlineto
              </CharString>
              <CharString index="7">
                256 hlineto
                -128 510 rlineto
              </CharString>
              <CharString index="8">
                -50 50 -205 -204 -50 -50</CharString>
        <CharString name=".notdef">
          450 hmoveto
          750 -400 -750 vlineto
          350 50 rmoveto
          -300 650 300 hlineto
        </CharString>
        <CharString name="a">
          -107 callsubr
        </CharString>
        <CharString name="b">
          100 505 -101 callsubr
        </CharString>
        <CharString name="c">
          300 -10 rmoveto
          510 vlineto
          -150 -50 -50 -205 -205 50 -50 150 hvcurveto
        </CharString>
        <CharString name="d">
          151 197 -105 callsubr
        </CharString>
        <CharString name="e">
          66 510 rmoveto
          128 -435 128 435 rlineto
          -377 -487 -104 callsubr
        </CharString>
        <CharString name="f">
          66 510 rmoveto
          256 hlineto
          -128 -435 rlineto
          -249 -52 -104 callsubr
        </CharString>
        <CharString name="g">
          -107 callsubr
        </CharString>
        <CharString name="h">
          211 657 -105 callsubr
          -111 -152 -101 callsubr
        </CharString>
        <CharString name="i">
          -106 callsubr
          80 -103 callsubr
        </CharString>
        <CharString name="j">
          -106 callsubr
          310 rmoveto
          128 -510 128 510 rlineto
        </CharString>
        <CharString name="k">
          -107 callsubr
          -28 -510 -103 callsubr
        </CharString>
        <CharString name="l">
          334 hmoveto
          -128 510 -128 -510 rlineto
          88 -102 callsubr
        </CharString>
        <CharString name="space">
        </CharString>
</ttFont>
